<svg width="36" height="35" viewBox="0 0 36 35" fill="none" xmlns="http://www.w3.org/2000/svg">
<path fill-rule="evenodd" clip-rule="evenodd" d="M18.0417 0C8.97083 -0.00683594 1.42978 6.98309 0.749481 16.0284C0.0691529 25.0737 6.47986 33.113 15.4497 34.463L15.4497 21.934H11.1597V17.376H15.4507V14.343C15.4507 9.32098 17.8967 7.11798 22.0707 7.11798C23.2597 7.10205 24.4483 7.17419 25.6266 7.33398L25.6267 11.313H22.7797C21.0087 11.313 20.3897 12.992 20.3897 14.886V17.377H25.5817L24.8817 21.934H20.3887V34.5C29.4182 33.2645 35.9478 25.2464 35.3293 16.1538C34.7107 7.06116 27.1553 0.00128174 18.0417 0H18.0417Z" fill="#4267B2"/>
</svg>
