<svg width="34" height="35" viewBox="0 0 34 35" fill="none" xmlns="http://www.w3.org/2000/svg">
<path fill-rule="evenodd" clip-rule="evenodd" d="M33.5201 17.9908C33.5209 16.8284 33.4207 15.666 33.2204 14.5189L17.0981 14.5168V21.1009H26.3331C25.9515 23.2282 24.7166 25.1069 22.915 26.3009L22.915 30.5729H28.425C31.8282 27.2894 33.6797 22.717 33.5201 17.9908Z" fill="#4285F4"/>
<path fill-rule="evenodd" clip-rule="evenodd" d="M17.0981 34.696C21.2635 34.8129 25.3167 33.3365 28.4311 30.568L22.9191 26.297C20.2308 28.0165 16.9006 28.4025 13.8903 27.3436C10.8799 26.2847 8.52484 23.8988 7.50507 20.875H1.81909V25.275C4.72198 31.0508 10.6337 34.696 17.0981 34.696Z" fill="#34A853"/>
<path fill-rule="evenodd" clip-rule="evenodd" d="M7.49805 20.8748C6.78192 18.7516 6.78192 16.452 7.49805 14.3288V9.9248H1.81903C-0.605896 14.7556 -0.605896 20.4481 1.81903 25.2788L7.49805 20.8748Z" fill="#FBBC04"/>
<path fill-rule="evenodd" clip-rule="evenodd" d="M17.0981 7.26697C19.536 7.22754 21.8917 8.14807 23.657 9.82996L28.5381 4.94897C25.4424 2.04431 21.3428 0.450378 17.0981 0.500916C10.6329 0.499878 4.72034 4.1463 1.81909 9.92395L7.49805 14.3239C8.85449 10.1564 12.7156 7.31647 17.0981 7.26294V7.26697Z" fill="#EA4335"/>
</svg>
